# xmcd
#
# Track frame offsets:
#	150
#	7563
#	23281
#	45933
#	56317
#	68518
#	72551
#	92855
#	114745
#	121712
#	146739
#	165129
#
# Disc length: 2401 seconds
#
# Revision: 1
# Processed by: cddbd v1.5.1PL0 Copyright (c) Steve Scherf et al.
# Submitted via: audiograbber 1.83.01
#
DISCID=83095f0c
DTITLE=Thee More Shadows - More Deep Cuts
DYEAR=2004
DGENRE=
TTITLE0=Post-Present
TTITLE1=Pre-Present
TTITLE2=Freshman Thesis
TTITLE3=int -
TTITLE4=Ave Grave
TTITLE5=Cold Dis
TTITLE6=Cloisterphobia
TTITLE7=2 AM
TTITLE8=int -
TTITLE9=Walk of Shame
TTITLE10=Ask Me About Jon Stross
TTITLE11=House Break
EXTD=
EXTT0=
EXTT1=
EXTT2=
EXTT3=
EXTT4=
EXTT5=
EXTT6=
EXTT7=
EXTT8=
EXTT9=
EXTT10=
EXTT11=
PLAYORDER=
